<?xml version="1.0" encoding="utf-8"?>
<!-- Generator: Adobe Illustrator 16.0.0, SVG Export Plug-In . SVG Version: 6.00 Build 0)  -->
<!DOCTYPE svg PUBLIC "-//W3C//DTD SVG 1.1//EN" "http://www.w3.org/Graphics/SVG/1.1/DTD/svg11.dtd">
<svg version="1.1" id="图层_1" xmlns="http://www.w3.org/2000/svg" xmlns:xlink="http://www.w3.org/1999/xlink" x="0px" y="0px"
	 width="300.601px" height="300.601px" viewBox="0 0 300.601 300.601" enable-background="new 0 0 300.601 300.601"
	 xml:space="preserve">
<g>
	<circle fill="#7FABDA" cx="150.273" cy="151.801" r="121"/>
	<ellipse fill="#75D6E0" cx="151.274" cy="149.801" rx="67.001" ry="121"/>
	<path d="M253.229,77.584c-1.92-2.709-3.922-5.352-6.053-7.898c-23.15-27.777-57.984-45.492-96.879-45.492
		c-0.076,0-0.125,0.006-0.191,0.006c-0.039,0-0.07-0.006-0.105-0.006c-0.143,0-0.283,0.016-0.436,0.016
		c-38.602,0.221-73.131,17.885-96.141,45.477c-2.121,2.553-4.131,5.189-6.053,7.898c-14.576,20.568-23.176,45.645-23.176,72.717
		s8.6,52.152,23.176,72.717c1.922,2.707,3.932,5.35,6.053,7.896c23.01,27.592,57.539,45.256,96.141,45.479
		c0.152,0,0.293,0.016,0.436,0.016c0.041,0,0.07-0.006,0.105-0.006c0.066,0,0.115,0.006,0.191,0.006
		c38.895,0,73.729-17.711,96.879-45.49c2.121-2.545,4.133-5.193,6.053-7.9c14.572-20.568,23.176-45.656,23.176-72.723
		C276.4,123.238,267.801,98.152,253.229,77.584z M113.434,40.594c-11.59,11.182-21.227,27.525-27.859,47.141
		c-8.898-3.32-16.9-7.32-23.803-11.844C75.307,59.818,93.098,47.445,113.434,40.594z M55.703,83.799
		c7.848,5.24,16.912,9.816,26.93,13.592c-4.324,15.799-6.805,33.336-6.9,51.844H34.564C34.785,124.891,42.623,102.361,55.703,83.799
		z M34.947,159.582h40.986c0.668,15.49,3.021,30.189,6.689,43.639c-10.029,3.77-19.084,8.348-26.92,13.582
		C44.107,200.352,36.635,180.787,34.947,159.582z M61.801,224.689c6.902-4.512,14.887-8.504,23.76-11.822
		c6.637,19.617,16.277,35.953,27.873,47.135C93.098,253.154,75.344,240.762,61.801,224.689z M145.123,265.686
		c-21.236-2.91-39.557-24.688-49.943-56.047c14.977-4.498,31.932-7.211,49.943-7.65V265.686z M145.123,191.65
		c-18.996,0.455-36.904,3.396-52.85,8.281c-3.268-12.404-5.355-26.006-5.982-40.346h58.832V191.65z M145.123,149.234H86.08
		c0.096-17.377,2.354-33.797,6.244-48.551c15.926,4.881,33.822,7.816,52.799,8.266V149.234z M145.123,98.613
		c-18.002-0.441-34.953-3.154-49.914-7.641c10.379-31.346,28.689-53.146,49.914-56.059V98.613z M266.021,149.234h-41.764
		c-0.092-18.426-2.547-35.898-6.842-51.643c10.246-3.805,19.498-8.457,27.471-13.783
		C257.967,102.371,265.799,124.891,266.021,149.234z M238.809,75.902c-7.043,4.607-15.229,8.668-24.334,12.029
		c-6.699-19.887-16.471-36.424-28.244-47.646C206.947,47.066,225.066,59.582,238.809,75.902z M155.473,34.99
		c20.998,3.244,39.086,25,49.363,56.135c-14.824,4.395-31.58,7.053-49.363,7.488V34.99z M155.473,108.955
		c18.754-0.445,36.447-3.32,52.232-8.1c3.869,14.719,6.113,31.074,6.203,48.383h-58.436V108.955z M155.473,159.582h58.225
		c-0.627,14.283-2.709,27.82-5.941,40.172c-15.805-4.783-33.52-7.658-52.279-8.107v-32.064H155.473z M155.473,265.609v-63.615
		c17.795,0.434,34.549,3.092,49.393,7.492C194.578,240.625,176.471,262.365,155.473,265.609z M186.23,260.324
		c11.773-11.227,21.566-27.748,28.266-47.645c9.084,3.359,17.258,7.412,24.293,12.014
		C225.045,241.01,206.947,253.533,186.23,260.324z M244.893,216.813c-7.975-5.336-17.23-9.994-27.477-13.803
		c3.633-13.381,5.967-28.014,6.623-43.424h41.604C263.961,180.787,256.504,200.355,244.893,216.813z"/>
</g>
</svg>
