<?xml version="1.0" encoding="utf-8"?>
<!-- Generator: Adobe Illustrator 16.0.0, SVG Export Plug-In . SVG Version: 6.00 Build 0)  -->
<!DOCTYPE svg PUBLIC "-//W3C//DTD SVG 1.1//EN" "http://www.w3.org/Graphics/SVG/1.1/DTD/svg11.dtd">
<svg version="1.1" id="图层_1" xmlns="http://www.w3.org/2000/svg" xmlns:xlink="http://www.w3.org/1999/xlink" x="0px" y="0px"
	 width="300.601px" height="300.601px" viewBox="0 0 300.601 300.601" enable-background="new 0 0 300.601 300.601"
	 xml:space="preserve">
<circle fill="#E5694C" stroke="#000000" stroke-width="10" stroke-miterlimit="10" cx="150.727" cy="150.3" r="125.344"/>
<circle fill="#E5694C" stroke="#000000" stroke-width="5" stroke-miterlimit="10" cx="150.727" cy="150.3" r="104.344"/>
<path fill="#FFD169" stroke="#000000" stroke-width="8" stroke-miterlimit="10" d="M172.04,150.3l29.821-29.82
	c4.295-4.295,4.295-11.262,0-15.557l-6.483-6.484c-4.296-4.295-11.262-4.295-15.558,0L150,128.261l-29.82-29.822
	c-4.296-4.295-11.262-4.295-15.559,0l-6.482,6.484c-4.296,4.295-4.296,11.262,0,15.557l29.821,29.82l-29.821,29.82
	c-4.296,4.297-4.296,11.262,0,15.559l6.482,6.482c4.297,4.297,11.263,4.297,15.559,0l29.82-29.82l29.82,29.82
	c4.296,4.297,11.262,4.297,15.558,0l6.483-6.482c4.295-4.297,4.295-11.262,0-15.559L172.04,150.3z"/>
</svg>
