<?xml version="1.0" encoding="utf-8"?>
<!-- Generator: Adobe Illustrator 16.0.0, SVG Export Plug-In . SVG Version: 6.00 Build 0)  -->
<!DOCTYPE svg PUBLIC "-//W3C//DTD SVG 1.1//EN" "http://www.w3.org/Graphics/SVG/1.1/DTD/svg11.dtd">
<svg version="1.1" id="图层_1" xmlns="http://www.w3.org/2000/svg" xmlns:xlink="http://www.w3.org/1999/xlink" x="0px" y="0px"
	 width="300.601px" height="300.601px" viewBox="0 0 300.601 300.601" enable-background="new 0 0 300.601 300.601"
	 xml:space="preserve">
<circle fill="#75D6E0" cx="148.203" cy="149.793" r="117.344"/>
<circle fill="#75D6E0" cx="148.203" cy="149.793" r="117.344"/>
<path fill="#8ADCE5" d="M236.712,231.058c-62.353,70.015-156.89,24.879-174.114,5.283c-9.768-11.112-28.96-31.35-23.893-44.465
	c16.967-43.916,59.595-74.973,109.498-74.973c49.902,0,92.529,31.009,109.497,74.926
	C262.769,204.946,246.552,220.008,236.712,231.058z"/>
<path fill="#00415C" d="M148.186,22.226c-69.954,0-126.869,56.92-126.869,126.873c0,69.957,56.915,126.874,126.869,126.874
	c69.957,0,126.868-56.917,126.868-126.874C275.054,79.146,218.143,22.226,148.186,22.226z M229.89,227.19c0-3.277,0-5.592,0-5.592
	c0-19.323-22.329-26.374-34.279-31.486c-4.327-1.85-12.482-5.765-20.859-9.854c-2.827-1.383-5.374-5.061-5.69-8.193l-0.926-9.164
	c6.405-5.963,12.173-14.27,13.151-23.527h1.442c2.273,0,4.415-1.699,4.749-3.784l2.268-13.998c0.302-2.991-2.525-4.808-4.805-4.808
	c0.058-0.297,0.106-0.598,0.146-0.854c0.289-1.684,0.467-3.312,0.579-4.888c0.146-1.278,0.257-2.593,0.312-3.953
	c0.24-6.611-0.878-12.396-2.731-15.63c-1.882-4.526-4.737-8.923-8.717-12.693c-11.07-10.478-23.906-14.559-34.854-6.136
	c-7.452-1.288-16.312,2.119-22.711,9.616c-3.492,4.092-5.666,8.772-6.596,13.375c-0.834,2.872-1.389,6.351-1.525,10.107
	c-0.148,4.186,0.262,8.016,1.033,11.114c-2.178,0.141-4.36,1.929-4.36,4.76l2.26,13.996c0.338,2.088,2.478,3.785,4.749,3.785h1.296
	c2.055,10.013,7.375,18.232,13.259,23.963l-0.891,8.852c-0.32,3.132-2.864,6.811-5.695,8.205c-8.094,3.956-16.067,7.76-20.838,9.72
	c-11.246,4.632-34.281,12.164-34.281,31.49v4.367c-18.767-20.205-30.345-47.177-30.345-76.863
	c0-62.397,50.765-113.163,113.162-113.163c62.4,0,113.165,50.766,113.165,113.163C261.346,179.378,249.333,206.855,229.89,227.19z"
	/>
</svg>
