<?xml version="1.0" encoding="utf-8"?>
<!-- Generator: Adobe Illustrator 16.0.0, SVG Export Plug-In . SVG Version: 6.00 Build 0)  -->
<!DOCTYPE svg PUBLIC "-//W3C//DTD SVG 1.1//EN" "http://www.w3.org/Graphics/SVG/1.1/DTD/svg11.dtd">
<svg version="1.1" id="图层_1" xmlns="http://www.w3.org/2000/svg" xmlns:xlink="http://www.w3.org/1999/xlink" x="0px" y="0px"
	 width="300.601px" height="300.601px" viewBox="0 0 300.601 300.601" enable-background="new 0 0 300.601 300.601"
	 xml:space="preserve">
<path fill="#E5694C" stroke="#000000" stroke-width="8" stroke-miterlimit="10" d="M234.405,237.379v-47.298
	c0-21.376-13.656-39.513-32.705-46.298v-22.978c0-8.369-6.798-15.158-15.165-15.158c-8.38,0-15.174,6.789-15.174,15.158
	c0,0,1.563,20.086-18.641,20.086c-20.215,0-22.351-20.086-22.351-20.086c0-8.369-6.779-15.158-15.159-15.158
	c-8.376,0-15.165,6.789-15.165,15.158v23.811c-17.849,7.381-30.406,24.946-30.406,45.465v47.693
	c-3.606,2.066-6.069,5.897-6.069,10.354c0,6.604,5.365,11.963,11.963,11.963h153.691c6.618,0,11.979-5.358,11.979-11.963
	C241.203,243.378,238.413,239.316,234.405,237.379z"/>
<path fill="#FFFFFF" stroke="#000000" stroke-width="7" stroke-miterlimit="10" d="M152.019,238.394
	c-21.391,0-38.737-17.343-38.737-38.729c0-21.396,17.354-38.728,38.737-38.728c21.384,0,38.748,17.334,38.748,38.728
	C190.767,221.061,173.407,238.394,152.019,238.394z"/>
<path fill="#FFC868" stroke="#000000" stroke-width="7" stroke-miterlimit="10" d="M172.362,199.418
	c0,11.485-9.305,20.783-20.792,20.783c-11.478,0-20.779-9.298-20.779-20.783c0-11.479,9.302-20.788,20.779-20.788
	C163.058,178.63,172.362,187.938,172.362,199.418z"/>
<path fill="#FFC868" stroke="#000000" stroke-width="8" stroke-miterlimit="10" d="M264.535,106.397l0.024,0.012
	c-0.056,0.277-0.119,0.533-0.168,0.804c-0.097,0.487-0.189,0.937-0.284,1.373c-0.044,0.178-0.082,0.368-0.124,0.563
	c-0.572,2.356-1.119,3.725-1.119,3.725s-0.039-0.037-0.089-0.071c-4.063,10.206-13.035,16.601-22.131,13.277l-20.122-8.378
	c-10.856-3.96-17.723-18.715-15.36-32.955l0.197-1.156c-24.614-6.849-73.714-9.512-110.302,0.838l0.446,2.711
	c2.368,14.242-4.518,28.989-15.361,32.948l-20.108,6.3c-10.585,3.864-21.004-2.952-23.715-16.556
	c-2.518-8.002-3.98-62.536,106.162-64.646C258.592,42.947,267.482,89.026,264.535,106.397z"/>
</svg>
