<?xml version="1.0" encoding="utf-8"?>
<!-- Generator: Adobe Illustrator 16.0.0, SVG Export Plug-In . SVG Version: 6.00 Build 0)  -->
<!DOCTYPE svg PUBLIC "-//W3C//DTD SVG 1.1//EN" "http://www.w3.org/Graphics/SVG/1.1/DTD/svg11.dtd">
<svg version="1.1" id="图层_1" xmlns="http://www.w3.org/2000/svg" xmlns:xlink="http://www.w3.org/1999/xlink" x="0px" y="0px"
	 width="300.601px" height="300.601px" viewBox="0 0 300.601 300.601" enable-background="new 0 0 300.601 300.601"
	 xml:space="preserve">
<circle fill="#FFC868" stroke="#000000" stroke-width="10" stroke-miterlimit="10" cx="150.727" cy="152.079" r="125.344"/>
<circle fill="none" stroke="#000000" stroke-width="5" stroke-miterlimit="10" cx="150.727" cy="152.079" r="99.344"/>
<path fill="#E5B45D" stroke="#E5B45D" stroke-width="5" stroke-miterlimit="10" d="M188.259,184.662
	c0-9.419-2.458-17.293-8.48-22.543c-4.633-4.169-11.058-6.64-21.249-8.184l-3.031-0.344v-33.525c7,0.863,13.136,3.206,18.245,8.084
	l10.179-10.5c-8.021-7.495-16.424-11.285-28.424-12.247V93.101h-14v12.603c-18,2.682-27.972,14.862-27.972,31.711
	c0,8.956,3.1,15.904,8.503,20.999c4.787,4.478,11.177,7.566,20.133,8.801l-0.664,0.007v34.394c-8-0.903-14.167-3.766-20.561-10.158
	l-11.591,10.962c9.117,9.253,19.152,13.377,32.152,14.303v14.38h14v-14.654C174.5,214.023,188.259,202.544,188.259,184.662z
	 M133.909,146.987c-2.934-2.625-4.644-6.176-4.644-10.19c0-7.686,4.234-13.909,12.234-16.189v30.663
	C138.5,150.307,135.969,148.818,133.909,146.987z M155.5,201.317v-32.089c6,0.895,9.295,1.996,11.915,4.471
	c2.934,2.625,3.848,6.64,3.848,11.426C171.263,193.787,165.5,199.488,155.5,201.317z"/>
<path fill="#FF965C" stroke="#141414" stroke-width="5" stroke-miterlimit="10" d="M188.509,177.162
	c0-9.419-2.833-17.293-8.855-22.543c-4.633-4.169-10.496-6.64-20.686-8.184l-2.468-0.344v-33.525c7,0.863,12.386,3.206,17.496,8.084
	l10.553-10.5c-8.021-7.495-16.049-11.285-28.049-12.247V86.101h-14v12.103c-18,2.682-28.722,14.862-28.722,31.711
	c0,8.956,2.725,15.904,8.128,20.999c4.787,4.478,11.74,7.566,20.695,8.801l-0.102,0.007v34.394c-8-0.903-14.917-3.766-21.311-10.158
	l-11.216,10.962c9.117,9.253,19.527,13.377,32.527,14.303v12.88h14v-13.154C175.5,206.523,188.509,195.044,188.509,177.162z
	 M134.159,139.487c-2.934-2.625-4.269-6.176-4.269-10.19c0-7.686,4.609-13.909,12.609-16.189v30.663
	C139.5,142.807,136.219,141.318,134.159,139.487z M156.5,193.817v-32.089c6,0.895,8.545,1.996,11.165,4.471
	c2.934,2.625,4.223,6.64,4.223,11.426C171.888,186.287,166.5,191.988,156.5,193.817z"/>
</svg>
