<?xml version="1.0" encoding="utf-8"?>
<!-- Generator: Adobe Illustrator 16.0.0, SVG Export Plug-In . SVG Version: 6.00 Build 0)  -->
<!DOCTYPE svg PUBLIC "-//W3C//DTD SVG 1.1//EN" "http://www.w3.org/Graphics/SVG/1.1/DTD/svg11.dtd">
<svg version="1.1" id="图层_1" xmlns="http://www.w3.org/2000/svg" xmlns:xlink="http://www.w3.org/1999/xlink" x="0px" y="0px"
	 width="300.601px" height="300.601px" viewBox="0 0 300.601 300.601" enable-background="new 0 0 300.601 300.601"
	 xml:space="preserve">
<circle fill="#FFC868" stroke="#000000" stroke-width="8" stroke-miterlimit="10" cx="70.601" cy="221.101" r="31"/>
<path fill="#7FABDA" stroke="#000000" stroke-width="8" stroke-miterlimit="10" d="M259.601,208.601c0-6.627-5.373-12-12-12h-102
	c-6.627,0-12,5.373-12,12v33c0,6.627,5.373,12,12,12h102c6.627,0,12-5.373,12-12V208.601z"/>
<path fill="#75D6E0" stroke="#000000" stroke-width="8" stroke-miterlimit="10" d="M172.601,241.601c0,6.627-5.373,12-12,12h-33
	c-6.627,0-12-5.373-12-12v-176c0-6.627,5.373-12,12-12h33c6.627,0,12,5.373,12,12V241.601z"/>
</svg>
