<?xml version="1.0" encoding="utf-8"?>
<!-- Generator: Adobe Illustrator 16.0.0, SVG Export Plug-In . SVG Version: 6.00 Build 0)  -->
<!DOCTYPE svg PUBLIC "-//W3C//DTD SVG 1.1//EN" "http://www.w3.org/Graphics/SVG/1.1/DTD/svg11.dtd">
<svg version="1.1" id="图层_1" xmlns="http://www.w3.org/2000/svg" xmlns:xlink="http://www.w3.org/1999/xlink" x="0px" y="0px"
	 width="300.601px" height="300.601px" viewBox="0 0 300.601 300.601" enable-background="new 0 0 300.601 300.601"
	 xml:space="preserve">
<rect x="203" y="58.601" fill="#7FABDA" width="41" height="171"/>
<rect x="55" y="56.601" fill="#7FABDA" width="41" height="171"/>
<polygon fill="#8A8F91" points="48,234.601 41.875,246.226 52.75,257.601 249,257.601 256.25,247.163 247.75,234.601 "/>
<polygon fill="#75D6E0" points="104.75,45.601 98,56.601 99,56.601 99,232.601 200,232.601 200,55.601 200,56.226 197.5,45.601 "/>
<g>
	<path d="M221.786,176.385c3.381,0,6.123-2.742,6.123-6.125v-13.011c0-3.382-2.742-6.122-6.123-6.122
		c-3.382,0-6.122,2.74-6.122,6.122v13.011C215.664,173.643,218.404,176.385,221.786,176.385z"/>
	<path d="M221.786,214.651c3.381,0,6.123-2.74,6.123-6.12v-13.014c0-3.382-2.742-6.122-6.123-6.122c-3.382,0-6.122,2.74-6.122,6.122
		v13.014C215.664,211.911,218.404,214.651,221.786,214.651z"/>
	<path d="M221.786,138.115c3.381,0,6.123-2.741,6.123-6.122v-13.014c0-3.381-2.742-6.122-6.123-6.122
		c-3.382,0-6.122,2.741-6.122,6.122v13.014C215.664,135.374,218.404,138.115,221.786,138.115z"/>
	<path d="M221.786,100.61c3.381,0,6.123-2.742,6.123-6.122V81.477c0-3.382-2.742-6.123-6.123-6.123
		c-3.382,0-6.122,2.741-6.122,6.123v13.012C215.664,97.868,218.404,100.61,221.786,100.61z"/>
	<path d="M78.66,176.385c3.379,0,6.123-2.742,6.123-6.125v-13.011c0-3.382-2.744-6.122-6.123-6.122c-3.381,0-6.124,2.74-6.124,6.122
		v13.011C72.536,173.643,75.279,176.385,78.66,176.385z"/>
	<path d="M78.66,214.651c3.379,0,6.123-2.74,6.123-6.12v-13.014c0-3.382-2.744-6.122-6.123-6.122c-3.381,0-6.124,2.74-6.124,6.122
		v13.014C72.536,211.911,75.279,214.651,78.66,214.651z"/>
	<path d="M78.66,138.115c3.379,0,6.123-2.741,6.123-6.122v-13.014c0-3.381-2.744-6.122-6.123-6.122
		c-3.381,0-6.124,2.741-6.124,6.122v13.014C72.536,135.374,75.279,138.115,78.66,138.115z"/>
	<path d="M78.66,100.61c3.379,0,6.123-2.742,6.123-6.122V81.477c0-3.382-2.744-6.123-6.123-6.123c-3.381,0-6.124,2.741-6.124,6.123
		v13.012C72.536,97.868,75.279,100.61,78.66,100.61z"/>
	<path d="M124.584,138.879c-3.383,0-6.123,2.742-6.123,6.125v13.011c0,3.382,2.74,6.123,6.123,6.123
		c3.382,0,6.122-2.741,6.122-6.123v-13.011C130.706,141.621,127.966,138.879,124.584,138.879z"/>
	<path d="M124.584,177.148c-3.383,0-6.123,2.742-6.123,6.125v13.012c0,3.379,2.74,6.121,6.123,6.121
		c3.382,0,6.122-2.742,6.122-6.121v-13.012C130.706,179.891,127.966,177.148,124.584,177.148z"/>
	<path d="M124.584,100.61c-3.383,0-6.123,2.742-6.123,6.124v13.011c0,3.383,2.74,6.123,6.123,6.123c3.382,0,6.122-2.74,6.122-6.123
		v-13.011C130.706,103.353,127.966,100.61,124.584,100.61z"/>
	<path d="M124.584,63.108c-3.383,0-6.123,2.74-6.123,6.122v13.011c0,3.383,2.74,6.123,6.123,6.123c3.382,0,6.122-2.74,6.122-6.123
		V69.23C130.706,65.849,127.966,63.108,124.584,63.108z"/>
	<path d="M149.839,138.879c-3.38,0-6.123,2.742-6.123,6.125v13.011c0,3.382,2.743,6.123,6.123,6.123
		c3.382,0,6.125-2.741,6.125-6.123v-13.011C155.964,141.621,153.221,138.879,149.839,138.879z"/>
	<path d="M149.839,100.61c-3.38,0-6.123,2.742-6.123,6.124v13.011c0,3.383,2.743,6.123,6.123,6.123c3.382,0,6.125-2.74,6.125-6.123
		v-13.011C155.964,103.353,153.221,100.61,149.839,100.61z"/>
	<path d="M149.839,63.108c-3.38,0-6.123,2.74-6.123,6.122v13.011c0,3.383,2.743,6.123,6.123,6.123c3.382,0,6.125-2.74,6.125-6.123
		V69.23C155.964,65.849,153.221,63.108,149.839,63.108z"/>
	<path d="M175.098,164.138c3.381,0,6.123-2.741,6.123-6.123v-13.011c0-3.383-2.742-6.125-6.123-6.125
		c-3.382,0-6.123,2.742-6.123,6.125v13.011C168.975,161.396,171.716,164.138,175.098,164.138z"/>
	<path d="M175.098,202.406c3.381,0,6.123-2.742,6.123-6.121v-13.012c0-3.383-2.742-6.125-6.123-6.125
		c-3.382,0-6.123,2.742-6.123,6.125v13.012C168.975,199.664,171.716,202.406,175.098,202.406z"/>
	<path d="M175.098,125.868c3.381,0,6.123-2.74,6.123-6.123v-13.011c0-3.382-2.742-6.124-6.123-6.124
		c-3.382,0-6.123,2.742-6.123,6.124v13.011C168.975,123.128,171.716,125.868,175.098,125.868z"/>
	<path d="M175.098,88.364c3.381,0,6.123-2.74,6.123-6.123V69.23c0-3.382-2.742-6.122-6.123-6.122c-3.382,0-6.123,2.74-6.123,6.122
		v13.011C168.975,85.624,171.716,88.364,175.098,88.364z"/>
	<path d="M250.871,227.422V56.219c0-3.381-2.487-6.122-5.87-6.122h-38.521v-6.123c0-3.384-2.488-6.124-5.87-6.124H100.345
		c-3.381,0-6.377,2.74-6.377,6.124v6.123H54.423c-3.382,0-6.377,2.741-6.377,6.122v171.203c-6.889,2.772-12.119,9.725-12.119,17.847
		c0,10.908,9.012,19.135,20.793,19.135h189.049c9.377,0,17.476-8.941,17.476-19.135
		C263.244,237.146,258.524,230.194,250.871,227.422z M48.3,245.269c0-3.799,3.09-6.888,6.889-6.888h189.05
		c3.797,0,6.889,3.089,6.889,6.888c0,3.931-3.25,6.889-5.358,6.889H56.72C51.762,252.157,48.3,249.323,48.3,245.269z
		 M238.625,226.134h-32.146V62.343h32.146V226.134z M194.232,50.097v176.037h-39.034v-31.381c0-3.38-2.741-6.124-6.123-6.124
		s-6.122,2.744-6.122,6.124v31.381h-36.74V50.097H194.232z M93.968,226.134H60.293V62.343h33.675V226.134z"/>
</g>
</svg>
